<svg xmlns="http://www.w3.org/2000/svg" width="70" height="70" fill="none" viewBox="0 0 70 70">
  <path stroke="#fff" stroke-linecap="round" stroke-linejoin="round" stroke-width="1.5" d="M64.167 48.825V13.62c0-3.5-2.859-6.096-6.33-5.805h-.175c-6.125.525-15.429 3.646-20.62 6.913l-.496.32c-.846.526-2.246.526-3.092 0l-.73-.437c-5.19-3.237-14.466-6.329-20.59-6.825-3.472-.291-6.3 2.334-6.3 5.804v35.234c0 2.8 2.274 5.425 5.074 5.775l.846.116c6.33.846 16.1 4.055 21.7 7.117l.117.058c.787.438 2.041.438 2.8 0 5.6-3.091 15.4-6.329 21.758-7.175l.963-.116c2.8-.35 5.075-2.975 5.075-5.775ZM35 16.013v43.75m-12.396-35h-6.562m8.75 8.75h-8.75"/>
</svg>
