<svg width="519" height="519" viewBox="0 0 519 519" fill="none" xmlns="http://www.w3.org/2000/svg">
<path d="M259.5 519C116.182 519 0 402.818 0 259.5C0 142.809 77.0215 44.1076 183 11.46V88.2649C117.581 117.536 72 183.195 72 259.5C72 363.053 155.947 447 259.5 447C330.845 447 392.882 407.153 424.572 348.5H503.336C467.016 447.981 371.551 519 259.5 519Z" fill="black"/>
<path d="M183 226H104V293H183V226Z" fill="black"/>
<path d="M259.5 0C402.818 0 519 116.182 519 259.5C519 270.852 518.271 282.033 516.858 293H444.016H361.5V226H444.016C430.333 150.136 371.011 90.137 295.5 75.4526V415.5H227.5V74.7198V1.9535C237.986 0.66399 248.665 0 259.5 0Z" fill="black"/>
</svg>
