<svg xmlns="http://www.w3.org/2000/svg" width="70" height="70" fill="none" viewBox="0 0 70 70">
  <path stroke="#fff" stroke-linecap="round" stroke-linejoin="round" stroke-width="1.5" d="M10.208 59.792a6.179 6.179 0 0 0 8.75 0l37.917-37.917a6.179 6.179 0 0 0 0-8.75 6.179 6.179 0 0 0-8.75 0L10.208 51.042a6.179 6.179 0 0 0 0 8.75ZM52.53 26.22l-8.75-8.75"/>
  <path stroke="#fff" stroke-linecap="round" stroke-linejoin="round" d="m24.792 7.117 4.375-1.284-1.284 4.376 1.284 4.375-4.375-1.284-4.375 1.284 1.283-4.375-1.283-4.375 4.375 1.283Zm-11.667 17.5 4.375-1.284-1.283 4.376 1.283 4.375-4.375-1.284-4.375 1.284 1.283-4.376-1.283-4.374 4.375 1.283ZM56.875 39.2l4.375-1.284-1.283 4.376 1.283 4.374-4.375-1.283-4.375 1.283 1.283-4.374-1.283-4.376 4.375 1.284Z"/>
</svg>
