<svg xmlns="http://www.w3.org/2000/svg" width="70" height="70" fill="none" viewBox="0 0 70 70">
  <path stroke="#fff" stroke-linecap="round" stroke-linejoin="round" stroke-width="1.5" d="m53.87 49.088 1.138 9.216c.292 2.421-2.304 4.113-4.375 2.859L38.413 53.9c-1.342 0-2.655-.087-3.938-.262 2.158-2.538 3.441-5.746 3.441-9.217 0-8.283-7.174-14.992-16.041-14.992-3.384 0-6.504.963-9.1 2.655a18.489 18.489 0 0 1-.117-2.217c0-13.271 11.521-24.034 25.754-24.034 14.234 0 25.755 10.763 25.755 24.034 0 7.875-4.055 14.846-10.296 19.22Z"/>
  <path stroke="#fff" stroke-linecap="round" stroke-linejoin="round" stroke-width="1.5" d="M37.917 44.42c0 3.472-1.284 6.68-3.442 9.218-2.888 3.5-7.467 5.745-12.6 5.745l-7.613 4.521c-1.283.788-2.916-.292-2.741-1.78l.729-5.745c-3.908-2.712-6.417-7.058-6.417-11.958 0-5.134 2.742-9.654 6.942-12.338 2.596-1.691 5.717-2.654 9.1-2.654 8.867 0 16.042 6.708 16.042 14.992Z"/>
</svg>
