<svg xmlns="http://www.w3.org/2000/svg" width="70" height="70" fill="none" viewBox="0 0 70 70">
  <path stroke="#fff" stroke-linecap="round" stroke-linejoin="round" stroke-width="1.5" d="M35 45.209c6.446 0 11.667-5.221 11.667-11.667V17.5c0-6.446-5.221-11.666-11.667-11.666S23.333 11.053 23.333 17.5v16.042c0 6.446 5.221 11.666 11.667 11.666Z"/>
  <path stroke="#fff" stroke-linecap="round" stroke-linejoin="round" stroke-width="1.5" d="M12.688 28.146v4.958c0 12.309 10.004 22.313 22.312 22.313 12.308 0 22.313-10.004 22.313-22.313v-4.958m-26.367-9.392a11.745 11.745 0 0 1 8.108 0m-6.387 6.184a9.154 9.154 0 0 1 4.696 0M35 55.416v8.75"/>
</svg>
